<svg width="24" height="25" viewBox="0 0 24 25" fill="none" xmlns="http://www.w3.org/2000/svg">
<g clip-path="url(#clip0_212_1024)">
<path d="M10.7841 0.327271H13.2216C13.84 0.410708 14.2612 0.712427 14.4853 1.23243C14.5462 1.37368 14.5952 1.58774 14.632 1.87461C14.702 2.4168 14.7739 2.95868 14.8477 3.50024C14.8485 3.50724 14.8514 3.51387 14.8559 3.51935C14.8605 3.52483 14.8666 3.52893 14.8734 3.53118C15.3206 3.68055 15.7569 3.8629 16.1822 4.07821C16.1929 4.08355 16.2049 4.08577 16.2168 4.08461C16.2287 4.08345 16.2401 4.07896 16.2497 4.07165C16.7359 3.69165 17.227 3.31258 17.723 2.93446C18.0927 2.65321 18.5077 2.56149 18.968 2.6593C19.243 2.71805 19.4795 2.84633 19.6777 3.04415C20.192 3.55696 20.7059 4.0704 21.2194 4.58446C21.7044 5.06977 21.8341 5.6129 21.6084 6.21383C21.5559 6.35415 21.4586 6.51883 21.3164 6.7079C20.9708 7.16727 20.623 7.61508 20.273 8.05133C20.2609 8.06646 20.2533 8.08465 20.2511 8.1038C20.2488 8.12295 20.252 8.14229 20.2603 8.15961C20.4709 8.59399 20.6483 9.0218 20.7923 9.44305C20.7963 9.45416 20.8032 9.46395 20.8124 9.47132C20.8216 9.47869 20.8327 9.48335 20.8444 9.48477C21.3487 9.54915 21.8428 9.61243 22.3266 9.67461C22.6884 9.72118 22.9472 9.77789 23.1028 9.84477C23.6259 10.0698 23.925 10.4998 24 11.1348V13.5606C23.9037 14.1846 23.5983 14.6035 23.0836 14.8173C22.9261 14.8829 22.6336 14.942 22.2061 14.9945C21.7602 15.0495 21.3034 15.1084 20.8359 15.1712C20.8265 15.1725 20.8176 15.1763 20.8103 15.1824C20.803 15.1884 20.7976 15.1964 20.7947 15.2054C20.645 15.6466 20.4633 16.0821 20.2495 16.5118C20.245 16.5209 20.2432 16.5312 20.2441 16.5414C20.2451 16.5515 20.249 16.5613 20.2552 16.5695C20.6314 17.0566 21.0081 17.5451 21.3853 18.0348C21.5678 18.2713 21.6737 18.5212 21.7031 18.7843C21.7416 19.1293 21.6781 19.439 21.5128 19.7134C21.4481 19.8206 21.2452 20.0449 20.9039 20.3865C20.4955 20.7949 20.087 21.2032 19.6786 21.6113C19.4189 21.8713 19.1081 22.0127 18.7463 22.0356C18.5584 22.0471 18.3756 22.0256 18.1978 21.9709C18.0147 21.9146 17.8481 21.8281 17.6981 21.7112C16.9956 21.1631 16.5086 20.7859 16.237 20.5796C16.2315 20.5754 16.2249 20.5728 16.2178 20.5721C16.2108 20.5715 16.2037 20.5728 16.1972 20.5759C15.7734 20.7837 15.3328 20.9648 14.8753 21.1191C14.867 21.1218 14.8597 21.1268 14.854 21.1335C14.8484 21.1402 14.8447 21.1484 14.8434 21.1571C14.7766 21.6687 14.7109 22.1824 14.6466 22.6984C14.6059 23.024 14.5544 23.2612 14.4919 23.4099C14.27 23.9365 13.8447 24.2423 13.2159 24.3273H10.7902C10.1677 24.2479 9.74234 23.9466 9.51422 23.4235C9.45266 23.2832 9.40422 23.076 9.36891 22.802C9.29953 22.267 9.22937 21.7221 9.15844 21.1674C9.15707 21.1558 9.15241 21.1449 9.14502 21.1358C9.13763 21.1268 9.12781 21.12 9.11672 21.1163C8.67328 20.9679 8.23875 20.7882 7.81312 20.5773C7.80318 20.5723 7.79204 20.5704 7.781 20.5715C7.76996 20.5727 7.75949 20.5769 7.75078 20.5838C7.33641 20.9101 6.92547 21.2295 6.51797 21.542C6.25234 21.7454 6.04156 21.8774 5.88562 21.9381C5.46344 22.1021 5.05328 22.0741 4.65516 21.8541C4.51953 21.7791 4.34969 21.6396 4.14563 21.4356C3.78438 21.0743 3.42313 20.7131 3.06187 20.3518C2.77906 20.0693 2.62156 19.9066 2.58938 19.8638C2.44719 19.676 2.35469 19.464 2.31187 19.2277C2.28031 19.0534 2.27984 18.8827 2.31047 18.7159C2.34172 18.5446 2.40203 18.3818 2.49141 18.2274C2.53859 18.1459 2.64266 18.0004 2.80359 17.791C3.10234 17.4026 3.41328 17.0006 3.73641 16.5849C3.74539 16.5734 3.75094 16.5596 3.75243 16.5451C3.75393 16.5305 3.7513 16.5159 3.74484 16.5029C3.53828 16.091 3.36031 15.6601 3.21094 15.2101C3.20757 15.1997 3.20134 15.1905 3.19296 15.1835C3.18458 15.1766 3.1744 15.1721 3.16359 15.1707C2.64109 15.102 2.13078 15.0365 1.63266 14.9743C1.30234 14.9331 1.0625 14.8809 0.913125 14.8177C0.388125 14.5965 0.08375 14.1716 0 13.5432V11.1057C0.078125 10.5016 0.37125 10.0837 0.879375 9.8518C1.015 9.79024 1.20766 9.74227 1.45734 9.7079C2.02109 9.63071 2.58359 9.55883 3.14484 9.49227C3.15886 9.4906 3.17211 9.48505 3.18305 9.47625C3.194 9.46746 3.2022 9.45579 3.20672 9.44258C3.36141 8.99696 3.53906 8.57055 3.73969 8.16336C3.74824 8.14626 3.75172 8.12707 3.74973 8.10805C3.74774 8.08903 3.74035 8.07098 3.72844 8.05602C3.39625 7.63633 3.06641 7.21165 2.73891 6.78196C2.56078 6.5479 2.44344 6.35618 2.38687 6.2068C2.22687 5.78649 2.25484 5.37852 2.47078 4.9829C2.54234 4.85196 2.67141 4.69305 2.85797 4.50618C3.28922 4.07524 3.72031 3.64415 4.15125 3.2129C4.2475 3.11696 4.33172 3.0368 4.40391 2.97243C4.49578 2.89118 4.59109 2.82586 4.68984 2.77649C5.11797 2.56211 5.56156 2.55915 6.02063 2.76758C6.12687 2.81602 6.26969 2.91133 6.44906 3.05352C6.88375 3.39852 7.32172 3.73899 7.76297 4.07493C7.76848 4.07916 7.77512 4.08175 7.78215 4.08241C7.78919 4.08307 7.79634 4.08178 7.80281 4.07868C8.2275 3.87493 8.66703 3.6929 9.12141 3.53258C9.13211 3.52877 9.14154 3.52206 9.14866 3.51321C9.15578 3.50435 9.1603 3.4937 9.16172 3.48243C9.21828 3.03305 9.27484 2.58258 9.33141 2.13102C9.38734 1.68415 9.45016 1.37946 9.51984 1.21696C9.73734 0.709771 10.1587 0.413208 10.7841 0.327271ZM4.64156 20.5252C4.78937 20.6806 4.90625 20.7956 4.99219 20.8702C5.24281 21.0874 5.50063 21.0835 5.76562 20.8585C5.92969 20.7191 6.45078 20.3168 7.32891 19.6515C7.46234 19.5502 7.5725 19.4941 7.65937 19.4832C7.79031 19.4673 7.92562 19.499 8.06531 19.5784C8.45125 19.7974 8.91031 19.9945 9.4425 20.1695C9.70187 20.2548 9.8425 20.304 9.86438 20.3171C10.0066 20.4027 10.0895 20.5402 10.1133 20.7296C10.1955 21.3812 10.2773 22.0329 10.3589 22.6848C10.3808 22.8595 10.4103 22.9826 10.4475 23.0541C10.5153 23.1857 10.6186 23.2709 10.7573 23.3096C10.8083 23.3237 10.9811 23.3315 11.2758 23.3331C11.8577 23.3356 12.4395 23.3321 13.0214 23.3227C13.1823 23.3202 13.3016 23.2966 13.3791 23.252C13.515 23.1738 13.5934 23.0509 13.6144 22.8831C13.6978 22.2077 13.7848 21.5331 13.8755 20.859C13.8758 20.8571 13.8795 20.8156 13.8867 20.7343C13.8992 20.5971 13.9495 20.4851 14.0377 20.3982C14.0964 20.3401 14.2158 20.2824 14.3958 20.2252C14.953 20.0481 15.4895 19.821 16.0055 19.5441C16.2136 19.4326 16.4058 19.4449 16.582 19.5812C17.1442 20.0149 17.7047 20.4509 18.2634 20.889C18.5369 21.1034 18.7977 21.0863 19.0458 20.8379C19.5458 20.3379 20.0458 19.8379 20.5458 19.3379C20.6917 19.192 20.743 19.0329 20.6995 18.8607C20.6777 18.7754 20.5991 18.6457 20.4637 18.4716C20.0744 17.972 19.6858 17.4716 19.298 16.9707C19.1717 16.8082 19.1255 16.6466 19.1592 16.486C19.1639 16.4638 19.2294 16.3237 19.3556 16.0656C19.5403 15.6881 19.7009 15.3006 19.8375 14.9031C19.9347 14.6193 19.9856 14.4737 19.9903 14.4662C20.0778 14.3212 20.223 14.2371 20.4258 14.214C20.743 14.1781 21.3969 14.094 22.3875 13.9618C22.5866 13.9352 22.7248 13.8934 22.8023 13.8362C22.9367 13.7374 23.0039 13.5899 23.0039 13.3937C23.0039 12.7374 23.007 12.0812 23.0133 11.4249C23.0145 11.2852 23.0036 11.172 22.9805 11.0851C22.9458 10.9541 22.8742 10.8556 22.7658 10.7893C22.7011 10.7499 22.5903 10.7199 22.4334 10.6993C21.7947 10.6162 21.1559 10.5335 20.5172 10.4513C20.3506 10.4298 20.2377 10.4038 20.1783 10.3735C20.0636 10.3145 19.9859 10.2196 19.9453 10.089C19.7459 9.44711 19.5077 8.87243 19.2305 8.36493C19.1348 8.18993 19.118 8.02524 19.1798 7.87086C19.1989 7.82368 19.2873 7.69883 19.4452 7.49633C19.8158 7.02008 20.1853 6.5429 20.5538 6.06477C20.6238 5.97415 20.668 5.89993 20.6864 5.84211C20.7152 5.7518 20.7184 5.66243 20.6962 5.57399C20.6753 5.48993 20.6075 5.38899 20.4928 5.27118C20.0091 4.77305 19.5178 4.28211 19.0191 3.79836C18.9381 3.71993 18.8659 3.66946 18.8025 3.64696C18.7106 3.61415 18.6191 3.60883 18.5278 3.63102C18.4531 3.64883 18.3455 3.71227 18.2048 3.82133C17.743 4.17977 17.2805 4.53774 16.8173 4.89524C16.6227 5.04555 16.5033 5.12977 16.4592 5.1479C16.3114 5.20821 16.1545 5.19352 15.9886 5.10383C15.5008 4.83977 14.993 4.62274 14.4652 4.45274C14.4627 4.4518 14.4122 4.43852 14.3137 4.4129C14.1747 4.37696 14.067 4.30555 13.9908 4.19868C13.9355 4.12118 13.8958 3.98649 13.8717 3.79461C13.7995 3.21899 13.7264 2.64368 13.6523 2.06868C13.6236 1.84399 13.6066 1.72258 13.6012 1.70446C13.5622 1.57102 13.4833 1.46993 13.3645 1.40118C13.2895 1.35743 13.1798 1.33415 13.0355 1.33133C12.3264 1.31665 11.6175 1.31696 10.9088 1.33227C10.8044 1.33446 10.7225 1.35086 10.6631 1.38149C10.5822 1.42368 10.5173 1.4818 10.4686 1.55586C10.4248 1.62305 10.3922 1.73852 10.3706 1.90227C10.2869 2.54321 10.2047 3.1843 10.1241 3.82555C10.1034 3.99118 10.0719 4.10758 10.0294 4.17477C9.96031 4.28352 9.85672 4.35852 9.71859 4.39977C9.19703 4.5554 8.69328 4.75508 8.20734 4.99883C8.20578 4.99946 8.15203 5.03102 8.04609 5.09352C7.91672 5.16946 7.78328 5.19508 7.64578 5.1704C7.55359 5.15383 7.43734 5.09118 7.29703 4.98243C6.76703 4.57149 6.23703 4.1604 5.70703 3.74915C5.55578 3.63165 5.40125 3.59321 5.24344 3.63383C5.15906 3.65571 5.06016 3.72165 4.94672 3.83165C4.37391 4.38696 3.87047 4.89165 3.43641 5.34571C3.31328 5.47477 3.26594 5.61571 3.29437 5.76852C3.31031 5.85571 3.37641 5.97415 3.49266 6.12383C3.82328 6.55008 4.15328 6.97696 4.48266 7.40446C4.68141 7.66258 4.78641 7.80336 4.79766 7.8268C4.88391 8.00649 4.86953 8.1968 4.75453 8.39774C4.70484 8.48461 4.67938 8.52915 4.67813 8.53133C4.42781 9.01633 4.22547 9.52118 4.07109 10.0459C4.02922 10.1881 3.95203 10.2929 3.83953 10.3604C3.77453 10.3995 3.65625 10.4302 3.48469 10.4527C2.80469 10.5418 2.12453 10.6285 1.44422 10.7129C1.27641 10.7338 1.15297 10.8143 1.07391 10.9543C1.03016 11.0315 1.00703 11.1465 1.00453 11.2993C0.993594 11.9934 0.990469 12.6876 0.995156 13.382C0.996406 13.5866 1.06609 13.7391 1.20422 13.8395C1.28047 13.8951 1.41422 13.9352 1.60547 13.9599C2.24297 14.0415 2.88031 14.1232 3.5175 14.2051C3.66594 14.2241 3.77062 14.2507 3.83156 14.2848C3.93625 14.3438 4.00766 14.4326 4.04578 14.551C4.25328 15.1929 4.49219 15.776 4.7625 16.3004C4.81562 16.4038 4.845 16.4881 4.85063 16.5531C4.85875 16.6502 4.84234 16.7412 4.80141 16.8259C4.78984 16.8499 4.71344 16.9529 4.57219 17.1348C4.20875 17.6035 3.84578 18.0726 3.48328 18.542C3.37578 18.681 3.31281 18.7906 3.29437 18.8706C3.26094 19.014 3.29469 19.1463 3.39563 19.2676C3.52688 19.4257 3.82672 19.7285 4.29516 20.176C4.39859 20.2748 4.51406 20.3912 4.64156 20.5252Z" fill="black"/>
<path d="M16.9948 12.3267C16.9948 13.6518 16.4684 14.9225 15.5315 15.8594C14.5946 16.7963 13.3239 17.3227 11.9989 17.3227C10.6739 17.3227 9.40313 16.7963 8.46621 15.8594C7.52929 14.9225 7.00293 13.6518 7.00293 12.3267C7.00293 11.0017 7.52929 9.73101 8.46621 8.79409C9.40313 7.85717 10.6739 7.33081 11.9989 7.33081C13.3239 7.33081 14.5946 7.85717 15.5315 8.79409C16.4684 9.73101 16.9948 11.0017 16.9948 12.3267ZM15.9959 12.3267C15.9959 11.2667 15.5748 10.25 14.8252 9.50042C14.0756 8.75083 13.0589 8.32972 11.9989 8.32972C10.9388 8.32972 9.92213 8.75083 9.17254 9.50042C8.42295 10.25 8.00184 11.2667 8.00184 12.3267C8.00184 13.3868 8.42295 14.4035 9.17254 15.1531C9.92213 15.9027 10.9388 16.3238 11.9989 16.3238C13.0589 16.3238 14.0756 15.9027 14.8252 15.1531C15.5748 14.4035 15.9959 13.3868 15.9959 12.3267Z" fill="black"/>
</g>
<defs>
<clipPath id="clip0_212_1024">
<rect width="24" height="24" fill="white" transform="translate(0 0.327271)"/>
</clipPath>
</defs>
</svg>
