<svg width="24" height="24" viewBox="0 0 24 24" fill="none" xmlns="http://www.w3.org/2000/svg">
<path d="M24 12C24 15.1826 22.7357 18.2348 20.4853 20.4853C18.2348 22.7357 15.1826 24 12 24C8.8174 24 5.76515 22.7357 3.51472 20.4853C1.26428 18.2348 0 15.1826 0 12C0 8.8174 1.26428 5.76516 3.51472 3.51472C5.76515 1.26428 8.8174 0 12 0C15.1826 0 18.2348 1.26428 20.4853 3.51472C22.7357 5.76516 24 8.8174 24 12ZM15.7468 15.3316L18.8557 18.8658C18.9542 18.9775 19.0728 19.0702 19.2031 19.1372C19.3334 19.2043 19.4722 19.2441 19.6096 19.2538C19.747 19.2634 19.8795 19.2428 19.9978 19.1932C20.116 19.1436 20.2171 19.0664 20.2937 18.9671C21.6844 17.1308 22.4911 15.1494 22.7139 13.0228C22.93 11.0042 22.5181 9.00253 21.4785 7.01772C19.6624 3.54093 16.8236 1.66751 12.962 1.39747C10.1333 1.20169 7.6557 1.87004 5.52911 3.40253C3.1865 5.1038 1.7789 7.49029 1.30633 10.562C1.07679 12.0068 1.15781 13.4143 1.54937 14.7848C1.97468 16.2633 2.62616 17.5527 3.5038 18.6532C3.60018 18.7754 3.72533 18.8715 3.87075 18.935C4.01617 18.9985 4.17845 19.0279 4.34657 19.0211C4.51468 19.0144 4.6847 18.9717 4.84506 18.896C5.00543 18.8203 5.15238 18.7133 5.27595 18.5823L8.36456 15.3013C8.49981 15.157 8.58295 14.9747 8.59791 14.7895C8.61287 14.6044 8.5586 14.4295 8.44557 14.2987C7.21688 12.9418 6.72068 11.4667 6.95696 9.87342C7.17975 8.38143 7.88523 7.15274 9.07342 6.18734C10.2684 5.20844 11.6388 4.9384 13.1848 5.37722C14.5418 5.76878 15.5578 6.5384 16.2329 7.68608C17.3401 9.58312 17.1173 11.8008 15.5646 14.3392C15.4826 14.4764 15.456 14.647 15.4889 14.8257C15.5217 15.0045 15.6121 15.1819 15.7468 15.3316ZM15.9089 10.4709C15.9089 9.95757 15.8078 9.44927 15.6113 8.97503C15.4149 8.50078 15.127 8.06987 14.764 7.7069C14.401 7.34393 13.9701 7.05601 13.4959 6.85957C13.0216 6.66313 12.5133 6.56203 12 6.56203C10.9633 6.56203 9.96907 6.97385 9.23602 7.7069C8.50296 8.43996 8.09114 9.43419 8.09114 10.4709C8.09114 11.5076 8.50296 12.5018 9.23602 13.2349C9.96907 13.9679 10.9633 14.3797 12 14.3797C13.0367 14.3797 14.0309 13.9679 14.764 13.2349C15.497 12.5018 15.9089 11.5076 15.9089 10.4709ZM12.5873 15.8886C9.27257 15.6928 7.13249 16.9722 6.16709 19.7266C6.0405 20.093 6.05688 20.4933 6.21291 20.8468C6.36895 21.2002 6.65299 21.4803 7.0076 21.6304C10.5722 23.1494 13.9747 23.1089 17.2152 21.5089C17.5329 21.3504 17.78 21.0793 17.9075 20.7493C18.035 20.4193 18.0337 20.0543 17.9038 19.7266C16.9451 17.3232 15.173 16.0439 12.5873 15.8886Z" fill="#010000" fill-opacity="0.996"/>
</svg>
